<svg width="48" height="15" viewBox="0 0 48 15" fill="none" xmlns="http://www.w3.org/2000/svg">
<path d="M25.9272 7.13919C28.9485 5.76881 29.3954 1.29688 25.0978 1.29688H20.1209L18.2817 4.90328H19.1472L16.9473 13.5226H22.7175C26.9272 13.5585 28.8204 8.60151 25.9272 7.13919V7.13919ZM22.7175 10.385H21.2749L21.8159 8.4376H23.1863C24.8092 8.7621 23.7995 10.4571 22.7175 10.385V10.385ZM23.583 6.23757H22.3569L22.7175 4.54259H24.0879C25.412 4.86719 24.2683 6.30975 23.583 6.23757Z" fill="#005FAF"/>
<path d="M37.7418 5.90331L39.6312 2.56794L37.0746 1.23438L36.7411 1.64594C35.362 0.915874 28.14 1.92391 27.6877 9.04809C27.9581 15.0244 34.6547 13.9494 35.3116 13.5702L37.1534 9.76275C35.3496 10.9509 31.656 11.5213 31.4997 7.95216C31.8237 5.00892 35.2987 3.90978 37.7418 5.90331V5.90331ZM47.1701 1.29745H41.3617L39.5154 4.7959H40.4639L36.0866 13.5231H40.3235L41.1934 11.4181H43.7943L43.8591 13.5231H47.7594L47.1701 1.29745V1.29745ZM42.3718 8.58399L43.7942 5.18875L43.859 8.58399H42.3718Z" fill="#005FAF"/>
<path d="M10.8975 12.9406L11.1231 12.8752L10.8757 12.5332L10.8975 12.9406ZM7.19316 12.8824L7.14952 13.1881C7.26183 13.1771 7.40009 13.2739 7.4552 13.0571C7.45107 12.8881 7.32243 12.8788 7.19316 12.8824V12.8824ZM8.99083 12.8752C8.97212 12.7919 8.90262 12.7306 8.72879 12.7879L8.78701 13.1007C8.92982 13.0691 9.00324 12.9846 8.99083 12.8752ZM4.92984 12.6191L4.86035 12.8971C4.97203 12.9018 5.10285 12.9923 5.17699 12.8276C5.18195 12.7244 5.18619 12.6216 4.92984 12.6191ZM8.83799 13.3337L8.88897 13.654C9.0082 13.657 9.11699 13.5853 9.08545 13.4357C9.05505 13.2917 8.93416 13.3145 8.83799 13.3337V13.3337Z" fill="#005FAF"/>
<path d="M13.5708 1.46267C9.71707 -0.500555 5.11463 -0.445955 1.44277 1.37705C-0.45066 4.71024 -0.510948 9.3739 1.44277 13.5045C5.48804 15.5516 9.96215 15.4167 13.5993 13.5901C15.3086 10.0832 15.5909 5.86326 13.5708 1.46267V1.46267ZM7.06224 11.4156L6.83381 11.4182C6.77724 10.787 6.62637 10.2565 6.3027 9.85052C4.81846 7.98925 1.78443 9.39055 2.56403 6.22736C2.9694 4.61025 7.59314 3.6565 7.06224 11.4156V11.4156ZM2.56951 8.29141C2.8936 8.95106 4.92404 9.05913 5.62888 9.56407C6.74694 10.365 6.58645 11.4185 6.58645 11.4185H6.32276C5.80364 9.82735 4.34671 11.0872 3.17973 10.6587C2.44708 10.3981 1.91514 9.26853 2.56951 8.29141V8.29141ZM6.26888 13.4785L6.37808 12.6125L6.57456 12.6271L6.48718 13.5804C6.39907 14.0003 5.77293 13.9442 5.69392 13.544L5.79578 12.5543L6.02866 12.5908L5.9268 13.4203C5.93973 13.6949 6.21511 13.6784 6.26888 13.4785ZM5.22331 13.715L4.99932 13.6609C5.02559 13.4758 5.24513 13.0992 4.81122 13.0992L4.69044 13.5915L4.44329 13.5451L4.70585 12.3635C5.34761 12.4334 5.40376 12.612 5.41648 12.8037C5.39114 12.9524 5.35154 13.0562 5.22341 13.0816C5.37336 13.2177 5.22517 13.5029 5.22331 13.715V13.715ZM3.80071 12.3915C3.73897 12.4734 3.6154 12.7595 3.59751 12.9875C3.57848 13.2292 3.81063 13.1783 3.86844 13.1501C3.91508 13.1275 3.94972 12.9334 3.94972 12.9334L3.78716 12.8792L3.84135 12.7167L4.20721 12.8386L4.0311 13.4483L3.88209 13.4076L3.89564 13.3128C3.71322 13.3959 3.37931 13.3336 3.34012 13.1231C3.30093 12.954 3.41964 12.4414 3.61105 12.2019C3.79709 11.9691 4.25033 12.1967 4.26139 12.3374C4.27236 12.4776 4.21703 12.6354 4.21703 12.6354L4.04641 12.6033C4.04641 12.6033 4.05685 12.5526 4.07174 12.4728C4.08746 12.3882 3.86689 12.3035 3.80071 12.3915V12.3915ZM7.1277 13.3838L7.08406 13.9079L6.90216 13.9006L6.96762 12.6561C7.4219 12.6655 7.68228 12.7284 7.67359 13.0492C7.6465 13.4874 7.2916 13.3889 7.1277 13.3838ZM7.58053 11.4184H7.27619C7.2492 10.3407 7.45643 8.36938 6.89016 6.91865C6.46112 5.8189 5.37532 5.32418 5.13469 4.43579C4.75373 3.02963 5.4021 1.50817 7.58053 1.39101C9.46909 1.5849 10.0493 3.04287 9.7272 4.40033C9.17334 5.75757 8.61938 5.56254 7.92974 6.91452C7.36647 8.3638 7.58094 10.2625 7.58053 11.4184V11.4184ZM10.9557 13.413L10.7446 13.4858L10.6791 12.234L10.9265 12.1685L11.5379 13.2019L11.3705 13.3111L11.1667 13.0201L10.9338 13.1074L10.9557 13.413V13.413ZM8.49342 11.4184H8.25C8.45061 8.65055 11.9288 9.25188 12.2467 8.29141C12.7964 9.24361 12.5988 10.0465 12.0248 10.458C10.5983 11.4812 9.23053 9.70088 8.49342 11.4184ZM9.78408 12.8163L9.89328 13.3913C9.96122 13.5237 10.0073 13.4992 10.1116 13.4859C10.2325 13.3984 10.2072 13.3132 10.1844 13.202L10.3954 13.173C10.4504 13.5895 10.2524 13.632 10.1043 13.6605C9.78676 13.6833 9.72451 13.6214 9.63858 13.2094C9.58853 12.8566 9.50208 12.4841 9.79866 12.4161C10.2855 12.3418 10.2568 12.5609 10.3008 12.7144L10.0898 12.7509C10.056 12.619 10.0075 12.5667 9.90051 12.5764C9.803 12.6212 9.76298 12.6937 9.78408 12.8163V12.8163ZM9.34014 13.413C9.35027 13.5942 9.28875 13.7146 9.17272 13.755L8.6778 13.8569L8.48132 12.6561C8.58287 12.6396 9.08079 12.4572 9.20178 12.7872C9.26145 12.9888 9.19961 13.0611 9.12898 13.151C9.26289 13.1941 9.30808 13.2983 9.34014 13.413ZM8.06924 7.387C9.17179 4.28265 11.6947 4.83123 12.2542 6.22747C13.0208 9.02914 10.5524 8.2608 8.97128 9.40968C8.37368 9.92942 8.05921 10.5257 8.05455 11.4296H7.78362C7.76739 9.60895 7.73791 8.31975 8.06924 7.387Z" fill="#005FAF"/>
</svg>
