<svg width="52" height="15" viewBox="0 0 52 15" fill="none" xmlns="http://www.w3.org/2000/svg">
<path d="M0 5.2207L4.33396 10.6804L0 14.2685V5.2207Z" fill="#F15A23"/>
<path d="M1.74487 14.2689L5.00941 11.5391L7.26082 14.2689H1.74487Z" fill="#F15A23"/>
<path d="M0 2.29282L1.1257 3.72809L5.76923 9.53954L7.27486 8.34348C7.27486 8.34348 6.02252 6.86599 5.17824 5.23372C3.5319 2.02547 4.69981 0.0273438 4.69981 0.0273438H0V2.29282Z" fill="#F15A23"/>
<path d="M6.44458 10.4266L7.97835 9.16016C7.97835 9.16016 9.44177 11.0879 11.1444 11.5382C13.3677 12.1292 14.3526 10.6799 14.3526 10.6799V14.268H9.45584L10.5534 13.3112C10.5534 13.3112 9.97647 13.6911 8.56934 12.7202C7.75321 12.1573 6.44458 10.4266 6.44458 10.4266Z" fill="#F15A23"/>
<path d="M6.58526 0C6.58526 0 6.09277 0.661351 6.44455 2.29362C6.81041 4.03846 8.30196 5.8818 8.28789 5.83959C8.28789 5.83959 8.38639 4.01032 9.45581 2.92683C11.7494 0.633209 14.3526 1.99812 14.3526 1.99812V0H6.58526Z" fill="#F15A23"/>
<path d="M14.3526 4.41796C14.3526 4.41796 12.9033 3.17969 11.6369 3.17969C10.0187 3.17969 9.14624 4.57274 9.14624 5.58588C9.14624 7.06336 9.84981 7.8795 10.5674 8.58307C11.5806 9.5962 12.8188 10.6938 14.3526 9.82134C14.3526 8.13278 14.3526 4.41796 14.3526 4.41796Z" fill="#F15A23"/>
<path d="M30.8584 0.140625H34.2777C34.2777 0.140625 37.3031 4.72787 38.7946 6.62749C40.2862 8.52712 41.8903 10.68 41.8903 10.68C41.8903 10.68 41.8903 4.4183 41.8903 1.16783C41.8903 0.759762 40.8068 0.140625 40.8068 0.140625H44.7468C44.7468 0.140625 43.4522 0.675335 43.4522 1.16783C43.4522 5.22036 43.4522 14.9999 43.4522 14.9999C43.4522 14.9999 42.2139 14.3104 40.8068 12.6781C39.2308 10.8348 33.6023 3.41924 33.6023 3.41924C33.6023 3.41924 33.6023 10.4267 33.6023 13.0299C33.6023 13.5224 34.6858 14.2682 34.6858 14.2682H30.8584C30.8584 14.2682 31.8997 13.5224 31.8997 13.0299C31.8997 9.52618 31.8997 4.4183 31.8997 1.16783C31.9137 0.73162 30.8584 0.140625 30.8584 0.140625Z" fill="#005E6A"/>
<path d="M46.97 0.140625H51.3602C51.3602 0.140625 50.1782 0.703477 50.1782 1.16783C50.1782 4.4183 50.1782 9.8076 50.1782 13.0299C50.1782 13.5365 51.3602 14.2682 51.3602 14.2682H46.97C46.97 14.2682 48.0675 13.5224 48.0675 13.0299C48.0675 9.16032 48.0675 4.4183 48.0675 1.16783C48.0675 0.717549 46.97 0.140625 46.97 0.140625Z" fill="#005E6A"/>
<path d="M17.9409 0.140625C17.9409 0.140625 19.0807 0.703477 19.0807 1.16783C19.0807 4.4183 19.0807 9.16032 19.0807 13.0299C19.0807 13.5365 17.9409 14.2682 17.9409 14.2682C17.9409 14.2682 23.6257 14.2682 24.4419 14.2682C24.8499 14.2682 29.395 13.5224 29.395 10.0187C29.395 6.51492 25.8631 6.17721 25.8631 6.17721C25.8631 6.17721 28.016 5.57215 28.016 3.18003C28.016 0.590907 24.8499 0.140625 24.4419 0.140625C23.6116 0.140625 17.9409 0.140625 17.9409 0.140625ZM21.4025 5.95207V1.53368C21.4025 1.53368 23.288 1.53368 24.0479 1.53368C24.4559 1.53368 25.8771 2.01211 25.8771 3.77102C25.8771 5.22036 24.4559 5.95207 24.0479 5.95207C23.1192 5.95207 21.4025 5.95207 21.4025 5.95207ZM21.4025 7.10592C21.4025 7.10592 24.0479 7.10592 24.4559 7.10592C24.864 7.10592 27.2561 7.72505 27.2561 9.8076C27.2561 11.9324 24.864 12.6781 24.4559 12.6781C24.0479 12.6781 21.4025 12.6781 21.4025 12.6781V7.10592Z" fill="#005E6A"/>
</svg>
