<svg width="64" height="15" viewBox="0 0 64 15" fill="none" xmlns="http://www.w3.org/2000/svg">
<path d="M19.6918 9.83707H19.2209V8.11033H20.0755C20.6685 8.11033 21.2616 8.30219 21.2616 8.91265V9.17428C21.2267 9.69754 20.2848 9.83707 19.6918 9.83707ZM19.1685 5.19754H19.6918C20.2848 5.19754 21.0174 5.2673 21.0174 5.86033V6.12196C21.0174 6.59289 20.2848 6.78475 19.7616 6.78475H19.1685V5.19754ZM17.1802 11.2324H20.0232C21.6104 11.2324 23.1976 10.8313 23.1976 9.31382V8.84288C23.1976 8.11033 22.4651 7.44754 21.7325 7.44754V7.37777C22.3255 7.308 22.9883 6.64521 22.9883 5.98242V5.45916C22.9883 4.32544 21.8546 3.73242 20.7383 3.73242H17.1802V11.2324Z" fill="#1F489D"/>
<path d="M39 11.2324H40.9884V7.8487C41.3895 8.11033 43.1686 11.2324 43.4477 11.2324H45.907C45.7674 10.7615 42.9942 7.37777 42.9942 7.25568C42.9942 7.11614 45.4535 4.20335 45.7151 3.73242H43.3256L41.0756 6.71498V3.73242H39.0872V11.2324H39Z" fill="#1F489D"/>
<path d="M63.6627 3.73242H61.6743V11.2324H63.6627V3.73242Z" fill="#1F489D"/>
<path d="M27.0524 5.33707L27.9768 8.24986H26.128L27.0524 5.33707ZM23.0059 11.2324H24.9245C25.1163 11.2324 25.5873 9.90684 25.5873 9.64521H28.3082C28.6396 9.64521 28.7791 11.2324 29.1105 11.2324H31.1686L28.3256 3.73242H25.9361C25.7442 3.73242 25.2733 5.24986 25.1338 5.52893C24.8721 6.12195 24.6628 6.78474 24.4012 7.44754C24.1396 8.04056 23.9303 8.63358 23.6687 9.29637C23.5466 9.90684 23.1454 10.7092 23.0059 11.2324Z" fill="#1F489D"/>
<path d="M31.4302 11.2324H33.2965V6.19172L35.8081 11.2324H38.2674V3.73242H36.4709V8.70335L34.0116 3.73242H31.4302V11.2324Z" fill="#1F489D"/>
<path d="M56.8255 5.19867H57.4883C58.0116 5.19867 58.8139 5.39053 58.8139 5.86146V6.12309C58.8139 6.78588 58.0116 6.92542 57.2965 6.92542H56.8255V5.19867ZM54.8372 11.2336H56.8255V8.251H57.2965C58.029 8.251 58.3604 8.84402 58.4825 9.38472C58.6744 9.90797 58.9534 10.6405 59.0755 11.1812H61.1337C61.1337 10.9196 60.5406 9.45449 60.4709 9.12309C60.3313 8.7917 60.2092 8.4603 60.0697 8.12891C59.8779 7.60565 59.5988 7.65798 59.4069 7.39635C60.0697 7.32658 60.8023 6.59402 60.8023 5.8789V5.35565C60.8023 4.09984 59.5465 3.62891 58.2209 3.62891H54.8372V11.2336Z" fill="#1F489D"/>
<path d="M50.2674 8.04056H50.7383C51.4709 8.04056 52.3255 8.18009 52.3255 8.84288C52.3255 9.69754 51.5929 9.83707 50.7383 9.83707H50.2674V8.04056ZM50.2674 5.19754H50.9999C51.6627 5.19754 52.186 5.33707 52.186 5.99986C52.186 6.52312 51.5232 6.80219 50.9302 6.80219H50.2674V5.19754ZM48.279 11.2324H51.3313C52.9185 11.2324 54.3139 10.7092 54.3139 9.17428V9.10451C54.3139 8.18009 53.7209 7.44754 52.9185 7.37777V7.308C53.5813 7.16847 54.1046 6.50568 54.1046 5.72079C54.1046 4.39521 53.1802 3.73242 51.8546 3.73242H48.2092V11.2324H48.279Z" fill="#1F489D"/>
<path d="M1.51744 2.47674C1.51744 1.95349 2.18023 1.48256 2.77326 1.48256H4.09884C5.02325 1.48256 5.94767 2.33721 5.94767 3.27907V3.47093C5.94767 4.98837 3.48837 6.38372 2.77326 7.51744C2.96512 7.84884 4.09884 8.98256 4.43023 9.31395C4.90116 9.78488 5.82558 10.5698 5.82558 11.3721V11.7733C5.82558 12.5058 4.90116 13.5 4.23837 13.5H2.65116C2.18023 13.5 1.58721 12.9767 1.58721 12.5058V2.49419H1.51744V2.47674ZM7.76163 3.40116C7.76163 3.06977 7.62209 2.54651 7.56977 2.26744C7.43023 2.00581 7.09883 1.53488 7.09883 1.41279H8.42442C9.22674 1.41279 10.2209 2.14535 10.2209 2.93023V3.40116C10.2209 4.46512 6.69767 6.97674 6.69767 7.44767C6.69767 7.44767 9.34883 10.1686 9.61046 10.4302C10.1337 10.9535 10.6046 11.4244 11.0756 11.8953C11.3372 12.157 12.3314 13.1512 12.4709 13.4128H7.09883C7.43023 12.9419 7.76163 12.4884 7.76163 11.686V11.4244C7.76163 10.4302 7.02907 9.69767 6.57558 9.17442C6.24418 8.84302 5.18023 7.58721 4.9186 7.37791C5.70349 6.19186 7.76163 5.33721 7.76163 3.40116ZM11.8081 3.06977C11.8081 2.26744 11.3372 1.93605 11.0058 1.48256C12.3314 1.48256 13.064 1.34302 13.3953 2.40698C13.5872 3 13.4651 4.79651 13.4651 5.65116C13.4651 7.8314 13.4651 10.0291 13.4651 12.2791L8.75581 7.5C9.48837 6.43605 11.7384 5.25 11.7384 3.64535V3.05233H11.8081V3.06977ZM0 2.80814V12.4186C0 13.7442 1.25581 15 2.65116 15H12.5407C13.7267 15 15 13.6744 15 12.3488V2.4593C15 1.20349 13.7442 0 12.3488 0H2.65116C1.13372 0.0174419 0 1.2907 0 2.80814Z" fill="#1F489D"/>
</svg>
