<svg width="54" height="12" viewBox="0 0 54 12" fill="none" xmlns="http://www.w3.org/2000/svg">
<path fill-rule="evenodd" clip-rule="evenodd" d="M38.3961 11.6205L41.7774 11.6108L44.1163 5.15102L46.0831 11.6193L49.3586 11.6083L53.5694 0.158119C52.5732 0.158119 51.5698 0.167849 50.5737 0.158119C50.1285 0.158119 50.227 0.0936549 50.1297 0.436651C50.0762 0.626393 49.9667 0.850192 49.9144 0.996147C49.7697 1.40361 49.659 1.74295 49.524 2.15285C49.2941 2.851 47.9513 6.25055 47.9428 6.66409L47.8613 6.65801L45.9286 0.158119L42.5911 0.1642L38.3961 11.6205ZM29.8212 2.99696C29.9234 2.61382 30.1946 1.93878 30.3576 1.52037C30.4439 1.30144 30.7857 0.158119 30.956 0.158119H41.4879L40.4832 2.98844L37.1007 2.99696C36.9195 2.99696 36.349 4.79829 36.2493 5.09142C36.006 5.83579 35.7154 6.50719 35.4684 7.25278C35.2386 7.94607 33.9578 11.2118 33.9481 11.6193H30.388L33.4689 3.00912L29.82 2.99696H29.8212ZM20.1346 6.87451H21.4105C22.1245 6.87451 23.837 6.79545 23.837 7.44252C23.837 8.49949 23.2507 8.46786 22.701 8.83518L22.0831 8.90086L19.3793 8.87897L20.1346 6.87451ZM21.5832 2.84857L24.1484 2.84249C24.4062 2.84249 24.8185 2.9106 24.8185 3.15143V3.40563C24.8185 4.04054 24.1277 4.38597 23.4806 4.38597L21.0237 4.37867L21.5783 2.8437L21.5832 2.84857ZM14.9301 11.5548L22.4893 11.5633C23.6752 11.5633 25.1737 10.8713 25.8548 10.3337C26.3251 9.96521 26.7039 9.49323 26.9619 8.95443C27.2199 8.41564 27.3501 7.82457 27.3424 7.22724C27.3424 6.75288 26.958 5.81998 26.6199 5.72998V5.57794C27.5041 5.37239 28.4273 3.84107 28.4273 2.63572C28.4273 0.532738 26.6211 0.158119 24.5035 0.158119H19.0983L14.9301 11.5548ZM1.35131 10.4139V3.96756L5.5524 1.66511L9.74741 4.06L9.75714 8.82789V10.4091L11.134 9.64645V3.33022C11.134 3.20859 8.66612 1.82688 8.37421 1.6493C8.13095 1.50091 5.58646 0 5.57673 0C5.4551 0 3.09548 1.46929 2.7914 1.65416C2.40097 1.89742 0.221366 3.27184 0 3.33022L0.0060852 9.63672L1.34401 10.4139H1.35131ZM2.75248 8.06162V4.87249L5.60348 3.24873L8.25015 4.88952V11.207L6.95479 12V7.16277L6.94871 5.63997L5.5524 4.78005L4.10014 5.68254V10.4139L4.07946 11.9732L2.761 11.1899L2.75248 9.61726V8.06162Z" fill="#133765"/>
<path fill-rule="evenodd" clip-rule="evenodd" d="M1.35132 8.85388V10.4132L2.75249 9.62015V8.06086L1.35132 8.85388ZM4.10015 7.2727V8.82713C4.35801 8.76753 5.41497 8.0341 5.55971 8.0341C5.70445 8.0341 6.72005 8.74442 6.95966 8.80037V7.16201L5.61322 6.39453L4.10501 7.26783L4.10015 7.2727ZM8.25016 9.5715L9.75715 10.4229V8.84172L8.25016 7.96964V9.56664V9.5715ZM4.10015 10.4229L4.07947 11.9725L4.13056 11.9968L5.53173 11.1028L6.95966 11.9992V10.418C6.72735 10.3633 5.68742 9.62502 5.55971 9.62502C5.432 9.62502 4.35801 10.3536 4.10015 10.4132V10.4229Z" fill="#BA9616"/>
</svg>
