<svg width="60" height="15" viewBox="0 0 60 15" fill="none" xmlns="http://www.w3.org/2000/svg">
<path d="M0 0V4.30427H9.767V1.99734L0 0Z" fill="#EA5504"/>
<path d="M20.8723 4.30427L9.76709 0V2.00733L20.8723 4.30427Z" fill="#FCC800"/>
<path d="M9.76709 4.30498H20.8723L9.76709 1.99805V4.30498Z" fill="#F39700"/>
<path d="M46.3882 9.7075L20.8921 4.30469L46.3882 12.7834V9.7075Z" fill="#FCC800"/>
<path d="M3.48536 12.7827C3.54528 12.4331 3.54528 12.1036 3.54528 11.764C3.54528 10.8253 3.28563 10.2361 3.05593 9.97641C2.72637 9.59692 2.42677 9.56696 2.04728 9.56696H1.39814V14.1908C1.39814 14.1908 1.30826 14.2008 1.69774 14.2008C3.13583 14.1908 3.3855 13.322 3.48536 12.7827ZM4.17445 9.47708C4.75368 10.1162 4.94342 11.1548 4.94342 11.784C4.94342 14.1409 4.07458 14.9997 2.14714 14.9997H0V8.74805H2.14714C2.80627 8.74805 3.57524 8.82794 4.17445 9.47708ZM8.35888 12.7427C7.92945 12.7827 7.8196 12.7827 7.63983 12.8326C7.30029 12.9125 7.00069 13.1023 7.00069 13.5616C7.00069 13.6515 7.01067 13.7514 7.03065 13.8513C7.12053 14.1509 7.34023 14.2407 7.5899 14.2407C7.68977 14.2407 7.94942 14.2307 8.12918 14.061C8.34889 13.8612 8.35888 13.5816 8.35888 13.3819V12.7427V12.7427ZM9.11787 10.7753C9.49736 11.1049 9.48738 11.5743 9.48738 11.9038V14.8599H8.30894L8.29896 14.5803C8.29896 14.5803 7.8895 14.9698 7.01067 14.9698C6.65115 14.9698 6.28164 14.8699 6.05195 14.6003C5.87219 14.4105 5.75235 14.0909 5.75235 13.6715C5.75235 13.5017 5.75235 12.9824 6.28164 12.6229C6.6112 12.4032 6.90082 12.3433 7.65981 12.2534L8.35888 12.1835V11.8339C8.35888 11.6242 8.34889 11.4445 8.269 11.3046C8.12918 11.065 7.83957 11.065 7.7397 11.065C7.4401 11.065 7.28031 11.2048 7.21041 11.2947C7.07059 11.4644 7.06061 11.7041 7.05062 11.8839H5.97205C5.97205 11.6841 5.96207 11.4145 6.11187 11.1548C6.45142 10.5457 7.05062 10.4058 7.84956 10.4058C8.10921 10.4058 8.20908 10.4258 8.47872 10.4757C8.73837 10.5257 8.91813 10.5956 9.11787 10.7753ZM17.6066 12.7427C17.1871 12.7827 17.0673 12.7827 16.8875 12.8326C16.548 12.9125 16.2484 13.1023 16.2484 13.5616C16.2484 13.6515 16.2584 13.7514 16.2783 13.8513C16.3682 14.1509 16.5879 14.2407 16.8276 14.2407C16.9375 14.2407 17.1971 14.2307 17.3669 14.061C17.5866 13.8612 17.5966 13.5816 17.5966 13.3819V12.7427H17.6066ZM18.3656 10.7753C18.7451 11.1049 18.7351 11.5743 18.7351 11.9038V14.8599H17.5666L17.5566 14.5803C17.5566 14.5803 17.1372 14.9698 16.2684 14.9698C15.9188 14.9698 15.5393 14.8699 15.3096 14.6003C15.1399 14.4105 15.01 14.0909 15.01 13.6715C15.01 13.5017 15.02 12.9824 15.5393 12.6229C15.8689 12.4032 16.1485 12.3433 16.9175 12.2534L17.6166 12.1835V11.8339C17.6166 11.6242 17.6066 11.4445 17.5367 11.3046C17.3869 11.065 17.1072 11.065 17.0074 11.065C16.7078 11.065 16.538 11.2048 16.4781 11.2947C16.3383 11.4644 16.3283 11.7041 16.3183 11.8839H15.2297C15.2297 11.6841 15.2198 11.4145 15.3696 11.1548C15.7091 10.5457 16.3083 10.4058 17.1072 10.4058C17.3669 10.4058 17.4668 10.4258 17.7264 10.4757C17.9861 10.5257 18.1658 10.5956 18.3656 10.7753ZM29.5507 13.322C29.5707 13.0823 29.5906 12.8526 29.5906 12.6029C29.5906 12.4132 29.5806 12.2234 29.5607 12.0337C29.5407 11.764 29.4808 11.0749 28.8217 11.0749C28.6818 11.0749 28.572 11.1049 28.4422 11.1648C28.0926 11.3746 28.0327 11.814 28.0127 12.0437C27.9828 12.3333 27.9728 12.573 27.9728 12.7427C27.9728 12.9325 27.9828 13.1322 28.0027 13.3319C28.0127 13.6016 28.0826 14.3306 28.7817 14.3306C28.8916 14.3306 29.0114 14.3007 29.1113 14.2507C29.4808 14.041 29.5307 13.5616 29.5507 13.322ZM30.4195 11.035C30.849 11.5244 30.849 12.2434 30.849 12.6229C30.849 13.0224 30.849 13.8313 30.3596 14.3606C29.8103 14.9698 29.0813 14.9698 28.7917 14.9698C28.4821 14.9698 28.3123 14.9498 28.0027 14.8599C26.9342 14.5503 26.7344 13.6515 26.7344 12.8026C26.7344 12.3532 26.7344 11.4744 27.3536 10.9251C27.9029 10.4358 28.6019 10.4158 28.9015 10.4158C29.1612 10.4158 29.9002 10.4158 30.4195 11.035ZM35.343 11.824C35.333 11.5044 35.333 11.1149 35.0633 10.8053C34.9435 10.6655 34.6539 10.4458 34.0747 10.4458C33.3856 10.4458 33.106 10.7454 32.7964 11.025V10.5357H31.568V14.8699H32.7964V11.9438C32.8064 11.7141 32.8163 11.4145 33.1759 11.2447C33.2558 11.2148 33.3756 11.1748 33.5154 11.1748C34.0447 11.1748 34.0946 11.6242 34.1046 11.764C34.1146 11.9038 34.1146 12.0437 34.1146 12.2234V14.8699H35.343V11.824ZM14.1012 11.824C14.0913 11.5044 14.0913 11.1149 13.8216 10.8053C13.7018 10.6655 13.4221 10.4458 12.8329 10.4458C12.1438 10.4458 11.8642 10.7454 11.5546 11.025V10.5357H10.3263V14.8699H11.5546V11.9438C11.5646 11.7141 11.5746 11.4145 11.9341 11.2447C12.014 11.2148 12.1339 11.1748 12.2637 11.1748C12.803 11.1748 12.8429 11.6242 12.8529 11.764C12.8729 11.9038 12.8729 12.0437 12.8729 12.2234V14.8699H14.1012V11.824ZM19.6439 10.5257H20.8722V11.035C21.1119 10.8253 21.5214 10.4458 22.2604 10.4458C23.0993 10.4458 23.3389 10.9551 23.3989 11.1149C23.8982 10.6355 24.2378 10.4458 24.7171 10.4458C24.9468 10.4458 25.1166 10.4857 25.2664 10.5457C25.9255 10.7953 25.9455 11.3845 25.9555 11.764V14.8599H24.7071V12.0337C24.6971 11.7241 24.6872 11.5543 24.6073 11.4145C24.5873 11.3746 24.4674 11.1648 24.1579 11.1648C24.048 11.1648 23.8483 11.1948 23.7584 11.2447C23.4188 11.4145 23.3989 11.6941 23.3989 11.9238V14.8499H22.1805V12.0437C22.1805 11.7141 22.1905 11.1548 21.6312 11.1548C21.5114 11.1548 21.2917 11.1948 21.1818 11.2547C20.8722 11.4445 20.8722 11.7241 20.8722 12.1036V14.8499H19.6439V10.5257Z" fill="#005137"/>
<path d="M20.8823 4.30469L46.3784 4.31467V9.7075L20.8823 4.30469Z" fill="#EA5504"/>
<path d="M46.3782 4.31445V9.70728L59.9202 12.7932L59.9102 4.31445H46.3782Z" fill="#F39700"/>
</svg>
