<svg width="52" height="15" viewBox="0 0 52 15" fill="none" xmlns="http://www.w3.org/2000/svg">
<path d="M0.0564941 10.3105C0.0564941 9.56198 0.0423704 8.94055 0 8.37561H1.41235L1.48296 9.33601H1.52533C1.85017 8.82756 2.42924 8.23438 3.51674 8.23438C4.36415 8.23438 5.02795 8.71458 5.31042 9.43487H5.33867C5.56465 9.08179 5.83299 8.81344 6.12958 8.62983C6.48267 8.37561 6.90637 8.2485 7.42894 8.2485C8.50233 8.2485 9.60396 8.98292 9.60396 11.0591V14.8724H8.00801V11.2992C8.00801 10.2258 7.6408 9.57611 6.84988 9.57611C6.28494 9.57611 5.87536 9.97156 5.70588 10.4376C5.66351 10.593 5.62114 10.7907 5.62114 10.9885V14.8724H4.02519V11.1156C4.02519 10.2117 3.6721 9.57611 2.90943 9.57611C2.30212 9.57611 1.89254 10.0563 1.73719 10.5083C1.66657 10.6636 1.63832 10.8613 1.63832 11.0449V14.8724H0.0564941V10.3105Z" fill="#003D79"/>
<path d="M15.8324 13.3052C15.8324 13.8842 15.8607 14.4633 15.9313 14.8587H14.4483L14.3353 14.1384H14.2929C13.8975 14.6469 13.2196 15 12.3722 15C11.0728 15 10.3384 14.0537 10.3384 13.0651C10.3384 11.4267 11.7931 10.6076 14.18 10.6217V10.5087C14.18 10.085 14.0105 9.37882 12.8665 9.37882C12.2309 9.37882 11.5671 9.57656 11.1293 9.85903L10.8045 8.79977C11.2847 8.50317 12.1179 8.2207 13.149 8.2207C15.2251 8.2207 15.8183 9.53418 15.8183 10.9465V13.3052H15.8324ZM14.2223 11.6951C13.0642 11.6668 11.9626 11.921 11.9626 12.9097C11.9626 13.5452 12.3722 13.8418 12.8947 13.8418C13.5444 13.8418 14.0246 13.4181 14.1658 12.9521C14.2082 12.825 14.2223 12.6978 14.2223 12.599V11.6951Z" fill="#003D79"/>
<path d="M16.9623 10.3105C16.9623 9.56198 16.9481 8.94055 16.9058 8.37561H18.3464L18.4311 9.35013H18.4735C18.7559 8.84169 19.4621 8.23438 20.5355 8.23438C21.6654 8.23438 22.8376 8.96879 22.8376 11.0167V14.8583H21.1993V11.2003C21.1993 10.2682 20.8462 9.56198 19.9564 9.56198C19.3068 9.56198 18.8548 10.0281 18.6853 10.5224C18.6288 10.6636 18.6147 10.8613 18.6147 11.0591V14.8583H16.9623V10.3105Z" fill="#003D79"/>
<path d="M29.9134 5.77734V13.0368C29.9134 13.7006 29.9417 14.4209 29.9699 14.8587H28.5011L28.4305 13.8277H28.4022C28.0209 14.548 27.23 15 26.2837 15C24.7442 15 23.5155 13.6865 23.5155 11.6951C23.5014 9.52006 24.8572 8.23483 26.4108 8.23483C27.3006 8.23483 27.9361 8.60204 28.2327 9.08224H28.261V5.77734H29.9134ZM28.2892 11.0878C28.2892 10.9607 28.2751 10.7912 28.2469 10.6641C28.1056 10.0285 27.583 9.50594 26.8345 9.50594C25.7894 9.50594 25.1962 10.4381 25.1962 11.6527C25.1962 12.8391 25.7752 13.7006 26.8204 13.7006C27.4842 13.7006 28.0774 13.2487 28.2327 12.5425C28.2751 12.4013 28.2892 12.2318 28.2892 12.0623V11.0878Z" fill="#003D79"/>
<path d="M32.724 8.37695H31.0715V14.8596H32.724V8.37695Z" fill="#003D79"/>
<path d="M33.8822 10.4661C33.8822 9.59045 33.8681 8.9549 33.8257 8.37584H35.2522L35.3086 9.6187H35.3651C35.69 8.70067 36.4385 8.37584 37.1306 8.37584C37.2859 8.37584 37.3848 8.34759 37.5119 8.37584V9.81643C37.3848 9.78818 37.2294 9.75993 37.0317 9.75993C36.2408 9.75993 35.7182 10.2684 35.5629 11.0028C35.5346 11.144 35.5064 11.3276 35.5064 11.5112V14.8585H33.8681V10.4661H33.8822Z" fill="#003D79"/>
<path d="M39.9271 8.37695H38.2747V14.8596H39.9271V8.37695Z" fill="#003D79"/>
<path d="M37.9356 0.53757C36.947 1.11663 33.7127 2.96681 33.7127 2.96681C32.4981 3.46113 31.5659 2.85382 31.2693 2.41599L31.227 2.3595L31.1846 2.28888L30.9727 1.94992C30.888 1.80868 30.7891 1.66745 30.6761 1.52621C30.5773 1.3991 30.4643 1.27199 30.3513 1.14488C29.5745 0.353965 28.3175 -0.19685 26.2414 0.791793C24.9844 1.51209 22.0608 3.17866 22.0608 3.17866C20.8603 3.87071 19.9141 4.4074 19.9141 4.4074L21.0157 5.76325C21.4818 6.20108 22.3574 6.9355 23.7133 6.32819L27.4701 4.15318C30.662 2.40187 32.2438 4.06844 32.95 5.19831C32.9783 5.22656 32.9924 5.26893 33.0206 5.3113L33.0348 5.35367L33.1195 5.48078C33.4585 5.98923 33.9952 6.32819 34.6307 6.31407C34.9838 6.31407 35.2239 6.18696 35.577 6.00335L39.1926 3.89896H39.2067C42.441 2.1194 44.0511 3.91308 44.729 5.02883C44.7855 5.1277 44.842 5.21244 44.8985 5.29718C45.2374 5.76325 45.7035 6.05985 46.2967 6.04572C46.6922 6.0316 47.13 5.80562 47.2006 5.76325L51.5365 3.2634C51.5365 3.2634 51.0987 2.5996 50.1806 1.55446C49.3615 0.62231 48.5 1.04601 47.8079 1.38498C47.5113 1.52621 45.421 2.71258 45.421 2.71258C44.277 3.19278 43.3731 2.67021 43.0342 2.23239C42.9918 2.19002 42.9636 2.14765 42.9494 2.10528L42.8647 1.96404C42.7376 1.75219 42.5822 1.51209 42.3986 1.27199C42.2998 1.14488 42.1868 1.01777 42.0738 0.890656C41.5936 0.396335 40.9298 0.000877672 40.0118 0.000877672C39.4327 -0.0132458 38.7548 0.142113 37.9356 0.53757Z" fill="#FFC709"/>
</svg>
