<svg width="78" height="15" viewBox="0 0 78 15" fill="none" xmlns="http://www.w3.org/2000/svg">
<path d="M7.29186 0.00195312C7.11391 0.00363552 6.95102 0.00931376 6.82841 0.0201548C6.73361 0.0285369 6.63892 0.0390058 6.54489 0.0509575C6.78263 0.0232055 7.02862 0.00759642 7.29186 0.00195312ZM8.37765 0.0404566C8.48768 0.0533655 8.60043 0.0691885 8.72699 0.0901611C8.75689 0.0951162 8.78986 0.100824 8.82359 0.106963C8.73889 0.0909196 8.65398 0.0754551 8.56807 0.0621586C8.51527 0.0539861 8.44946 0.0471302 8.37765 0.0404566ZM9.43125 0.244175C9.43553 0.245922 9.43848 0.247205 9.43965 0.248375C9.44447 0.253193 9.25313 0.932331 9.01401 1.75771C8.7749 2.58309 8.57883 3.26621 8.57857 3.27545C8.57833 3.28469 9.2886 3.29225 10.1565 3.29225C11.0244 3.29225 11.7395 3.29985 11.7457 3.30975C11.7621 3.33634 13.6667 10.779 13.6589 10.7864C13.6553 10.7899 12.9149 10.7998 12.0138 10.8088L10.3756 10.8256L10.3497 10.7045C10.212 10.0675 9.69867 7.62766 9.69867 7.60954C9.69867 7.59662 9.69294 7.59147 9.68607 7.59834C9.6792 7.60521 9.47401 8.32996 9.23033 9.20918L8.78719 10.8081L7.59008 10.8137L6.39297 10.8193L6.15495 11.6426C6.02398 12.0953 5.77258 12.9624 5.597 13.5692C5.43242 14.1381 5.29097 14.6093 5.26798 14.6655C5.26798 14.6655 5.26798 14.6662 5.26798 14.6662C5.40909 14.7099 5.55181 14.7498 5.69641 14.7852C6.10193 14.8844 6.40938 14.9336 7.02163 14.9952C7.07092 15.0002 7.3431 15.0005 7.62649 14.9959C8.29845 14.985 8.7433 14.9268 9.36544 14.7705C11.9192 14.1287 13.9964 12.1091 14.7132 9.57181C15.433 7.02435 14.8016 4.35409 13.0205 2.41437C12.0471 1.35429 10.8258 0.618114 9.43125 0.244173V0.244175ZM5.32748 0.311381C5.0862 0.384471 4.8488 0.46936 4.61691 0.566204C4.74467 0.513167 4.87435 0.463784 5.00545 0.417791C5.1151 0.379322 5.22204 0.343909 5.32748 0.311381ZM2.3004 2.09094C2.27085 2.11943 2.24203 2.14874 2.2129 2.17775C2.24196 2.14879 2.27088 2.11943 2.3004 2.09094ZM2.2129 2.17775C2.18266 2.20785 2.15236 2.2381 2.12259 2.26876C2.15241 2.23801 2.18256 2.20799 2.2129 2.17775ZM2.12259 2.26876C2.09258 2.29965 2.06321 2.33041 2.03368 2.36187C2.06298 2.33062 2.09277 2.2995 2.12259 2.26876ZM2.03368 2.36187C1.98605 2.4126 1.93862 2.46441 1.89227 2.51658C1.93862 2.46434 1.98591 2.41281 2.03368 2.36187ZM1.82716 2.59079C1.78405 2.6406 1.74168 2.69093 1.69975 2.742C1.74155 2.69102 1.78406 2.64066 1.82716 2.59079ZM1.69485 2.7483C1.63371 2.82293 1.57348 2.89855 1.51493 2.97582C1.41862 3.10294 1.32628 3.23442 1.23771 3.36926C1.37959 3.15455 1.53212 2.94722 1.69485 2.7483ZM3.4072 3.35946L3.3841 3.43226C3.37138 3.47231 2.92087 5.14322 2.38372 7.1454C1.84655 9.14758 1.40228 10.8034 1.39592 10.8249C1.38177 10.8729 1.37217 10.873 3.24549 10.841C3.9779 10.8285 4.57993 10.815 4.58331 10.8116C4.5867 10.8082 4.7799 10.0813 5.01245 9.19588C5.245 8.3105 5.44006 7.59552 5.44649 7.60674C5.45292 7.61796 5.66813 8.32997 5.92463 9.18958C6.18115 10.0492 6.39805 10.7448 6.40698 10.7353C6.4159 10.7259 6.66979 9.86664 6.97053 8.82555L7.51728 6.93258L7.07064 5.14602L6.624 3.35946H5.01525H3.4072ZM1.21671 3.40146C1.19543 3.43422 1.1745 3.46701 1.1537 3.50017C1.17445 3.46732 1.19546 3.43398 1.21671 3.40146ZM0.168012 5.91259C0.163131 5.93543 0.15868 5.95831 0.154011 5.98119C0.158706 5.9582 0.163102 5.93555 0.168012 5.91259ZM0.010498 7.90077C0.0114613 7.91922 0.0128962 7.93762 0.0139984 7.95607C0.0128783 7.93767 0.0114793 7.91918 0.010498 7.90077ZM0.0805044 8.59873C0.0830336 8.61599 0.0848576 8.63329 0.0875077 8.65053C0.0911436 8.67422 0.0954454 8.69765 0.0994061 8.72124C0.0927773 8.68042 0.0865238 8.63967 0.0805044 8.59873V8.59873ZM0.599251 10.4399C0.728589 10.7427 0.87708 11.0356 1.04379 11.3171C0.878872 11.0359 0.728253 10.7393 0.599251 10.4399ZM3.50591 13.8527C3.55763 13.8854 3.61016 13.9172 3.66273 13.9486C3.6099 13.9172 3.55782 13.8853 3.50591 13.8527ZM3.66273 13.9486C4.03506 14.1713 4.42805 14.3628 4.83883 14.5185C4.42495 14.3584 4.03249 14.1684 3.66273 13.9486Z" fill="#FDF300"/>
<path d="M7.51725 1.47544e-08C6.56959 4.48188e-05 5.86315 0.11773 5.00542 0.418638C2.61756 1.25634 0.781618 3.29866 0.202288 5.76152C-0.103932 7.06329 -0.0620123 8.41385 0.324797 9.69377C0.562523 10.4804 0.989532 11.3239 1.4827 11.9809C2.39383 13.1947 3.57707 14.0667 5.01662 14.5858C5.14599 14.6325 5.25787 14.6713 5.26515 14.6719C5.27241 14.6726 5.42141 14.1768 5.59697 13.57C5.77255 12.9632 6.02395 12.0961 6.15492 11.6434L6.39294 10.8202L7.59005 10.8146L8.78716 10.809L9.2303 9.21003C9.47398 8.33081 9.67917 7.60606 9.68604 7.59919C9.69291 7.59231 9.69864 7.59746 9.69864 7.61039C9.69864 7.6285 10.2119 10.0684 10.3497 10.7054L10.3756 10.8265L12.0138 10.8097C12.9149 10.8006 13.6553 10.7908 13.6589 10.7873C13.6666 10.7798 11.7621 3.33718 11.7456 3.3106C11.7395 3.3007 11.0244 3.2931 10.1565 3.2931C9.28857 3.2931 8.5783 3.28554 8.57854 3.2763C8.57879 3.26705 8.77487 2.58394 9.01398 1.75856C9.2531 0.933178 9.44444 0.25404 9.43962 0.249222C9.4209 0.230499 8.98526 0.133813 8.72696 0.0910082C8.30219 0.0206182 8.02838 -2.01471e-05 7.51725 1.47544e-08V1.47544e-08ZM3.40718 3.3603H5.01522H6.62397L7.07061 5.14686L7.51725 6.93343L6.9705 8.8264C6.66976 9.86749 6.41587 10.7267 6.40695 10.7362C6.39802 10.7456 6.18112 10.05 5.9246 9.19043C5.6681 8.33081 5.45289 7.61881 5.44646 7.60759C5.44003 7.59637 5.24497 8.31134 5.01242 9.19673C4.77987 10.0821 4.58667 10.8091 4.58328 10.8125C4.5799 10.8159 3.97787 10.8294 3.24546 10.8419C1.37215 10.8739 1.38174 10.8738 1.39589 10.8258C1.40225 10.8042 1.84652 9.14842 2.38369 7.14624C2.92084 5.14406 3.37135 3.47315 3.38407 3.43311L3.40718 3.3603Z" fill="#007BB7"/>
<path fill-rule="evenodd" clip-rule="evenodd" d="M21.1587 2.75586H74.9819C76.4865 2.75586 77.6977 4.06234 77.6977 5.68519V9.47267C77.6977 11.0955 76.4865 12.402 74.9819 12.402H21.1587C19.6541 12.402 18.4429 11.0955 18.4429 9.47267V5.68519C18.4429 4.06234 19.6541 2.75586 21.1587 2.75586Z" fill="#007CB9"/>
<path d="M26.4119 10.7643L27.5719 3.92773H29.3209L30.7112 7.58068L32.1768 3.92773H33.9479L34.9795 10.7643H33.204L32.7037 6.82795H32.686L31.0433 10.7643H30.3393L28.7674 6.82795H28.7497L28.1785 10.7643H26.4119Z" fill="#FFF500"/>
<path d="M44.7418 5.43319H42.6254V6.57557H44.6311V8.08103H42.6254V9.25883H44.7418V10.7643H40.8499V3.92773H44.7418V5.43319Z" fill="#FFF500"/>
<path d="M68.4252 9.57763H65.9767L65.5073 10.7643H63.6211L66.2512 3.92773H68.1905L70.7675 10.7643H68.8724L68.4252 9.57763ZM67.947 8.21829L67.2208 6.0398H67.2031L66.4681 8.21829H67.947Z" fill="#FFF500"/>
<path d="M56.5671 6.30588L57.6931 5.1799C57.6931 5.1799 56.9276 4.39704 56.4454 4.16042C55.8799 3.88289 55.2342 3.73438 54.6043 3.73438C53.6922 3.73438 53.1669 3.93313 52.6414 4.2365C52.2088 4.48628 51.7898 4.80811 51.5154 5.22554C51.1083 5.84475 50.8239 6.59957 50.8307 7.34057C50.8383 8.18263 51.1738 9.03659 51.6524 9.72949C51.8959 10.0822 52.2601 10.3555 52.6414 10.5512C53.1963 10.8359 53.8285 11.0105 54.4521 11.0228C55.1166 11.036 55.8311 10.9407 56.3998 10.5968C57.0005 10.2336 57.4632 9.62285 57.754 8.9839C58.0113 8.41847 58.0431 7.14276 58.0431 7.14276H54.3152V8.71001H56.0802C56.0802 8.71001 55.7128 9.12945 55.2612 9.30605C55.0104 9.4041 54.7885 9.39473 54.4978 9.39473C53.8833 9.39473 53.4443 9.13824 53.0827 8.77088C52.7351 8.41776 52.5058 7.89694 52.5045 7.40144C52.5029 6.84664 52.7403 6.24569 53.1435 5.86462C53.5108 5.51755 54.0687 5.37534 54.5738 5.36249C54.9862 5.352 55.3912 5.52914 55.7607 5.71246C56.0597 5.86079 56.5671 6.30588 56.5671 6.30588V6.30588Z" fill="#FFF500"/>
</svg>
