<svg width="50" height="15" viewBox="0 0 50 15" fill="none" xmlns="http://www.w3.org/2000/svg">
<g clip-path="url(#clip0)">
<path fill-rule="evenodd" clip-rule="evenodd" d="M3.53107 5.17387L4.39468 4.31025L5.25986 5.17387L4.39468 6.03904L3.53107 5.17387ZM7.52274 2.01145C6.50296 2.93285 5.83456 3.24674 5.67371 4.42269C5.51285 5.59864 6.14221 7.99271 6.14221 7.99271H4.68516C4.68516 7.99271 5.66277 9.14211 5.99698 9.20301C6.201 9.22178 6.40585 9.23012 6.61072 9.228C7.01988 10.1385 7.16512 11.3753 6.92306 11.7501C6.80281 12.114 5.74242 13.2041 4.37907 12.7199C3.01572 12.2358 1.60083 11.4472 1.3572 9.62935C1.11358 7.81155 1.99593 6.97449 2.78302 6.05778C1.02613 7.18375 0.206242 8.32535 0.0250859 9.78084C-0.15607 11.2363 0.691926 12.659 1.6305 13.4461C2.56907 14.2332 4.02457 14.8095 4.84289 14.5393C5.66121 14.2691 7.14481 12.5981 7.56959 11.6595C7.59927 10.6897 7.62269 9.22019 7.62269 9.22019C7.62269 9.22019 9.89963 9.23269 10.7461 9.06402C11.5925 8.89536 12.7169 8.32066 12.8059 7.09786C12.8949 5.87506 11.9002 4.924 10.5758 4.41801C11.2005 5.18792 11.2005 5.97969 10.946 6.61218C10.6914 7.24466 10.4244 7.54919 9.54044 7.78032C8.65653 8.01145 7.49619 8.0255 7.26663 7.75065C7.14481 7.53826 6.50765 4.04164 7.52274 2.01145V2.01145ZM8.28485 1.58823L9.91993 0C13.4993 2.51275 14.2442 4.72566 14.7096 6.33107C15.175 7.93649 15.239 11.811 12.77 13.596C10.301 15.381 7.26038 14.9922 6.04226 14.9047L7.6305 13.3633C9.14534 13.3024 10.8944 13.0744 12.4436 11.4893C13.9928 9.90421 14.7861 7.3774 13.8117 5.41593C12.8372 3.45445 10.0636 2.05049 8.28485 1.58355V1.58823ZM9.97771 10.6648L10.8429 9.79958L11.7127 10.6648L10.8476 11.5284L9.9824 10.6648H9.97771ZM7.99281 10.6648L8.85642 9.79958L9.7216 10.6648L8.85642 11.5284L7.99281 10.6648Z" fill="#40AF3B"/>
<path fill-rule="evenodd" clip-rule="evenodd" d="M16.6978 1.16388V1.60271H17.1788V5.87705H18.9325C19.3714 5.87705 19.8836 5.8099 20.2397 5.53035C20.3864 5.41005 20.5024 5.25647 20.5779 5.08237C20.6534 4.90827 20.6863 4.71867 20.6738 4.52931C20.6744 4.40491 20.6559 4.28116 20.6191 4.16232C20.5817 4.04973 20.5257 3.94418 20.4536 3.84998C20.3773 3.74912 20.2843 3.66198 20.1788 3.5923C20.0583 3.51878 19.9263 3.46599 19.7883 3.43613L19.5962 3.39084L19.7743 3.30495C19.9719 3.21668 20.1435 3.07899 20.2725 2.90516C20.382 2.73521 20.4365 2.53563 20.4286 2.33358C20.4315 2.16828 20.3942 2.00476 20.3199 1.85705C20.2457 1.70935 20.1367 1.58187 20.0023 1.48559C19.8523 1.37765 19.6841 1.29776 19.5057 1.24977C19.2875 1.19261 19.0628 1.16477 18.8373 1.167L16.6978 1.16388ZM17.6816 3.19407V1.60115H18.7748C18.9524 1.59739 19.1298 1.61257 19.3042 1.64644C19.4344 1.67026 19.5586 1.71962 19.6696 1.79168C19.762 1.85507 19.8346 1.94333 19.8789 2.04623C19.9235 2.15464 19.9453 2.27105 19.9429 2.38824C19.952 2.50772 19.9309 2.62758 19.8815 2.73675C19.8321 2.84592 19.756 2.94089 19.6603 3.01292C19.4077 3.14918 19.1221 3.21194 18.8357 3.19407H17.6816ZM17.6816 5.43665V3.62666H18.8373C19.0421 3.62323 19.2467 3.64103 19.4479 3.67976C19.5936 3.70558 19.7324 3.76142 19.8555 3.84373C19.9598 3.91555 20.0399 4.0174 20.085 4.13577C20.1281 4.26241 20.1487 4.39559 20.146 4.52931C20.146 5.25081 19.5494 5.43509 18.9278 5.43509L17.6816 5.43665ZM32.2912 5.87393L30.8607 3.73129L32.11 2.50224H31.5275L30.4531 3.69381H30.0142V3.62354C30.0142 2.68652 30.0142 1.74951 30.0142 0.8125H29.1178V1.24977H29.5317V5.87705H30.0111V4.07955L30.5655 4.09048L31.718 5.87705L32.2912 5.87393ZM25.8836 2.49912H25.4041H24.9559V2.93796H25.4041V5.87705H25.8836V3.40178L25.9008 3.38304C26.1569 3.08632 26.5036 2.79897 26.9159 2.79897C27.0179 2.791 27.1204 2.8061 27.2159 2.84313C27.3113 2.88017 27.3972 2.93819 27.4671 3.01292C27.5958 3.21051 27.6572 3.44443 27.642 3.67976V5.87705H28.1324V3.64696C28.1324 2.86612 27.8201 2.41948 27.008 2.41948C26.8279 2.41929 26.6502 2.46156 26.4895 2.54285C26.3099 2.63863 26.1508 2.76861 26.021 2.92546L25.8961 3.06914V2.49912H25.8836ZM23.6473 5.87705H24.4687V5.43665H24.1298V3.67976C24.1359 3.4675 24.1036 3.25588 24.0345 3.05508C23.9811 2.90775 23.8902 2.77694 23.7706 2.67559C23.6477 2.57803 23.5031 2.5116 23.349 2.48194C23.1585 2.44215 22.9642 2.42329 22.7696 2.42572C22.4572 2.42572 21.9481 2.48038 21.7123 2.71151C21.6311 2.79272 21.5562 2.86768 21.6217 2.97856C21.6873 3.08944 21.7779 3.06133 21.8732 3.00198C22.1328 2.8467 22.4312 2.76818 22.7337 2.77554C22.9054 2.76953 23.0769 2.79223 23.2412 2.84269C23.3577 2.88015 23.4586 2.95476 23.5286 3.05508C23.5906 3.15378 23.6266 3.26662 23.6332 3.38304C23.6441 3.51734 23.6473 3.65477 23.6473 3.79064V3.86091H23.2693C22.476 3.86091 21.2204 3.97335 21.2204 5.02437C21.2173 5.15413 21.2438 5.2829 21.2979 5.40088C21.3521 5.51886 21.4324 5.62296 21.5327 5.70526C21.6386 5.79105 21.7593 5.85669 21.8888 5.89891C22.0332 5.94715 22.1847 5.9709 22.337 5.96919C22.7721 5.98481 23.1968 5.83339 23.5239 5.54597L23.6426 5.43978V5.8833L23.6473 5.87705ZM23.6332 5.06653C23.5746 5.1511 23.5047 5.22729 23.4255 5.29298C23.3412 5.36166 23.2489 5.41987 23.1506 5.46633C23.0507 5.51372 22.946 5.55037 22.8383 5.57564C22.7327 5.59924 22.6248 5.61128 22.5166 5.61156C22.3124 5.62131 22.1103 5.56668 21.9388 5.45539C21.8639 5.40298 21.8034 5.33263 21.7627 5.25078C21.7221 5.16894 21.7026 5.07821 21.7061 4.98689C21.7061 4.2607 22.5931 4.17637 23.1366 4.17637H23.641V5.05248L23.6332 5.06653Z" fill="#AF4284"/>
<path fill-rule="evenodd" clip-rule="evenodd" d="M21.367 9.59999L20.0099 13.3902H19.2962L17.947 9.60311V13.3902H17.1567V8.39281H18.3077L19.6523 12.297L21.0094 8.39281H22.1604V13.3902H21.367V9.59999ZM47.0802 12.6671H47.4175V13.3886H46.3134V13.1185C45.9768 13.3655 45.5673 13.493 45.15 13.4808C44.9823 13.4823 44.8155 13.4559 44.6565 13.4027C44.5105 13.3556 44.3744 13.282 44.2551 13.1856C44.1408 13.0925 44.0485 12.9751 43.9849 12.8421C43.9178 12.7028 43.8837 12.55 43.885 12.3954C43.8834 11.2444 45.1906 11.0883 46.0698 11.0883H46.3072C46.3072 10.979 46.3072 10.8712 46.2947 10.7619C46.2887 10.6695 46.2603 10.58 46.2119 10.5011C46.1584 10.4269 46.0822 10.372 45.9948 10.3449C45.846 10.3007 45.6909 10.2812 45.5357 10.2871C45.2619 10.2796 44.9914 10.3488 44.7549 10.487C44.7225 10.5152 44.6845 10.5361 44.6434 10.5483C44.6023 10.5606 44.559 10.5638 44.5165 10.5579C44.474 10.552 44.4333 10.537 44.3971 10.514C44.3609 10.491 44.3301 10.4605 44.3066 10.4246C44.1911 10.2481 44.2817 10.1122 44.416 9.97948C44.683 9.71712 45.2171 9.65465 45.5716 9.65465C45.7761 9.65197 45.9803 9.67134 46.1807 9.71243C46.3565 9.74659 46.5215 9.82266 46.6617 9.93419C46.8028 10.0503 46.9106 10.2017 46.974 10.373C47.0506 10.5916 47.0866 10.8224 47.0802 11.0539V12.6671V12.6671ZM41.1177 12.6671H41.4566V13.3886H40.3525V13.1185C40.0151 13.3653 39.6052 13.4927 39.1874 13.4808C39.0198 13.4822 38.853 13.4558 38.694 13.4027C38.5486 13.3552 38.4132 13.2816 38.2942 13.1856C38.1798 13.0921 38.087 12.9749 38.0224 12.8421C37.9558 12.7027 37.9222 12.5499 37.924 12.3954C37.924 11.2444 39.228 11.0898 40.1104 11.0898H40.3493C40.3493 10.9805 40.3493 10.8728 40.3353 10.7634C40.3307 10.6708 40.3022 10.5809 40.2525 10.5026C40.1997 10.4284 40.124 10.3736 40.037 10.3465C39.8876 10.3023 39.732 10.2827 39.5763 10.2887C39.3025 10.2812 39.032 10.3504 38.7955 10.4886C38.7631 10.5168 38.7251 10.5377 38.684 10.5499C38.6429 10.5621 38.5996 10.5654 38.5571 10.5595C38.5146 10.5535 38.4739 10.5386 38.4377 10.5156C38.4015 10.4926 38.3707 10.4621 38.3473 10.4261C38.2317 10.2497 38.3238 10.1138 38.4566 9.98104C38.7236 9.71868 39.2577 9.65621 39.6122 9.65621C39.8172 9.65352 40.022 9.6729 40.2228 9.71399C40.3981 9.7485 40.5625 9.82455 40.7023 9.93575C40.8428 10.0524 40.9505 10.2036 41.0146 10.3746C41.0907 10.5933 41.1261 10.824 41.1192 11.0555V12.6671H41.1177ZM32.4831 9.88266C32.6057 9.7406 32.7564 9.62558 32.9258 9.54492C33.0952 9.46427 33.2795 9.41973 33.467 9.41415C34.0058 9.41415 34.404 9.62498 34.6008 10.1075C34.6246 10.0749 34.6501 10.0437 34.6773 10.0138C34.9709 9.68588 35.3254 9.41415 35.7845 9.41415C36.7137 9.41415 37.0464 10.0388 37.0464 10.8962V13.4761H36.2733V10.9399C36.2755 10.8089 36.2634 10.678 36.2374 10.5495C36.2193 10.4611 36.1837 10.3772 36.1328 10.3027C36.09 10.2442 36.0307 10.1996 35.9626 10.1747C35.8754 10.1438 35.7833 10.129 35.6908 10.131C35.3067 10.131 35.0131 10.4011 34.8007 10.6963V13.4761H33.9511V10.9399C33.9532 10.8089 33.9412 10.678 33.9152 10.5495C33.8965 10.4627 33.8609 10.3805 33.8106 10.3074C33.7677 10.2489 33.7085 10.2043 33.6403 10.1794C33.5532 10.1485 33.4611 10.1336 33.3686 10.1356C32.9844 10.1356 32.6908 10.4058 32.4784 10.701V13.4808H31.7132V10.2965H31.1744V9.52659H31.7132V9.51722H32.4831V9.88578V9.88266ZM30.3155 12.6671H30.6544V13.3886H29.5503V13.1185C29.213 13.3653 28.8031 13.4927 28.3853 13.4808C28.2176 13.4822 28.0508 13.4558 27.8918 13.4027C27.7441 13.354 27.6065 13.2788 27.4857 13.1809C27.3723 13.0869 27.2801 12.9698 27.2156 12.8374C27.1485 12.6981 27.1143 12.5453 27.1156 12.3907C27.1156 11.2398 28.4212 11.0852 29.302 11.0852H29.5393C29.5393 10.9758 29.5393 10.8681 29.5269 10.7588C29.5216 10.6663 29.4932 10.5766 29.4441 10.498C29.3909 10.4241 29.3153 10.3693 29.2286 10.3418C29.0792 10.2977 28.9236 10.2782 28.7679 10.284C28.494 10.2765 28.2236 10.3457 27.987 10.4839C27.9547 10.5121 27.9167 10.533 27.8756 10.5452C27.8344 10.5574 27.7912 10.5607 27.7487 10.5548C27.7062 10.5489 27.6655 10.5339 27.6293 10.5109C27.5931 10.4879 27.5622 10.4574 27.5388 10.4214C27.4233 10.245 27.5138 10.1091 27.6481 9.97636C27.9152 9.71399 28.4493 9.65153 28.8038 9.65153C29.0088 9.64891 29.2135 9.66828 29.4144 9.70931C29.5897 9.74382 29.7541 9.81987 29.8938 9.93107C30.0344 10.0477 30.142 10.1989 30.2062 10.3699C30.2823 10.5886 30.3177 10.8194 30.3108 11.0508V12.6671H30.3155ZM48.4717 10.1934H47.8704V9.56876H48.4717V8.52399H49.2369V9.56876H49.9615V10.1934H49.2369V12.3189C49.2348 12.4126 49.2422 12.5062 49.2588 12.5984C49.2679 12.6491 49.287 12.6974 49.315 12.7405C49.3319 12.7658 49.3574 12.7841 49.3868 12.7921C49.4258 12.8035 49.4664 12.8088 49.5071 12.8077C49.5586 12.8077 49.6101 12.8077 49.6632 12.8077C49.7163 12.8077 49.7616 12.7968 49.81 12.789L49.8912 12.7765V13.3855L49.8366 13.398C49.6828 13.4324 49.5256 13.4486 49.3681 13.4464C49.2087 13.4518 49.0497 13.4269 48.8996 13.373C48.7843 13.3276 48.6861 13.2473 48.6185 13.1435C48.5512 13.0317 48.5096 12.9063 48.4967 12.7765C48.4777 12.6168 48.4688 12.4562 48.4701 12.2955V10.1934H48.4717ZM42.1531 8.80353H41.6643V8.08203H42.9136V12.6687H43.5211V13.3902H42.1515V8.80353H42.1531ZM25.4212 13.0498C25.2937 13.1822 25.1413 13.288 24.9727 13.3612C24.8041 13.4344 24.6227 13.4734 24.4389 13.4761C23.555 13.4761 23.1755 12.9561 23.1755 12.1065V9.73586H23.9485V12.0784C23.9464 12.1986 23.9584 12.3186 23.9844 12.436C24.0025 12.5169 24.0377 12.5931 24.0875 12.6593C24.1324 12.7133 24.1913 12.7538 24.2577 12.7765C24.346 12.8048 24.4383 12.8185 24.531 12.8171C24.9074 12.8171 25.1994 12.5828 25.4212 12.3001V9.73586H26.188V12.6609H26.7252V13.3824H26.188H25.4212V13.0498V13.0498ZM46.3134 12.3735V11.6848H45.9511C45.5029 11.6848 44.6612 11.7333 44.6612 12.3548C44.6575 12.4238 44.6715 12.4925 44.7019 12.5545C44.7322 12.6166 44.7778 12.6698 44.8345 12.7093C44.9821 12.8029 45.155 12.8487 45.3296 12.8405C45.4274 12.84 45.5248 12.8285 45.62 12.8061C45.7157 12.7844 45.8085 12.7514 45.8964 12.7077C45.9831 12.6655 46.0643 12.6131 46.1385 12.5516C46.2042 12.4982 46.2629 12.4368 46.3134 12.3689V12.3735ZM40.3525 12.3735V11.6848H39.9886C39.5404 11.6848 38.6986 11.7333 38.6986 12.3548C38.695 12.4238 38.709 12.4925 38.7393 12.5545C38.7697 12.6166 38.8153 12.6698 38.872 12.7093C39.0201 12.8029 39.1935 12.8487 39.3686 12.8405C39.4659 12.8399 39.5628 12.8284 39.6575 12.8061C39.7537 12.7844 39.847 12.7514 39.9355 12.7077C40.0216 12.6655 40.1024 12.6131 40.176 12.5516C40.2417 12.4977 40.3009 12.4364 40.3525 12.3689V12.3735ZM29.5503 12.3735V11.6848H29.1864C28.7382 11.6848 27.8965 11.7333 27.8965 12.3548C27.8928 12.4238 27.9068 12.4925 27.9372 12.5545C27.9675 12.6166 28.0131 12.6698 28.0698 12.7093C28.2179 12.8031 28.3913 12.8489 28.5664 12.8405C28.7629 12.8389 28.9565 12.7935 29.1333 12.7077C29.2192 12.6651 29.2999 12.6127 29.3738 12.5516C29.4393 12.4992 29.4985 12.4395 29.5503 12.3735V12.3735Z" fill="#AF4284"/>
</g>
<defs>
<clipPath id="clip0">
<rect width="49.9615" height="15" fill="white"/>
</clipPath>
</defs>
</svg>
