<svg width="80" height="10" viewBox="0 0 80 10" fill="none" xmlns="http://www.w3.org/2000/svg">
<path d="M56.5024 7.08988C56.5024 6.14794 56.1525 5.48402 55.4742 5.11012C55.2261 4.99439 54.9632 4.91373 54.6929 4.87044C54.3493 4.81078 54.0013 4.78111 53.6526 4.78176H52.2865V9.49388H53.6526C54.6401 9.49388 55.364 9.31412 55.8098 8.92823C56.045 8.72726 56.2228 8.4676 56.3251 8.17564C56.4489 7.82725 56.5098 7.4596 56.5048 7.08988H56.5024ZM52.2865 0.40279V4.44141H53.7054C55.3544 4.44141 56.21 3.74634 56.2196 2.37536C56.2196 1.04274 55.3304 0.393203 53.5831 0.40279H52.2865ZM51.1695 8.86831C51.1695 8.71492 51.1863 8.47284 51.1935 8.14927V1.76657L51.1719 1.1482C51.1719 1.01877 51.1719 0.927691 51.1552 0.882152C51.1496 0.837215 51.1391 0.793017 51.124 0.750327C51.1008 0.674491 51.0607 0.6049 51.0067 0.546783C50.9528 0.488665 50.8863 0.443532 50.8124 0.414774C50.6049 0.345176 50.3865 0.313513 50.1677 0.321299V0.105586H53.8036C54.285 0.103156 54.7658 0.138417 55.2417 0.211046C55.5962 0.258116 55.9429 0.352429 56.2723 0.491472C56.6271 0.641624 56.9264 0.898207 57.1291 1.22579C57.3317 1.55337 57.4277 1.93579 57.4036 2.32024C57.4036 3.55459 56.6031 4.34314 54.9229 4.54447L54.6401 4.59001C55.0204 4.62275 55.3973 4.6877 55.7666 4.78415C56.0082 4.84117 56.2417 4.92813 56.4617 5.04301C56.8695 5.22849 57.2119 5.53268 57.444 5.91581C57.6762 6.29894 57.7874 6.74321 57.7632 7.19055C57.7632 8.38895 57.1807 9.1751 55.9919 9.54421C55.6705 9.62917 55.3426 9.68769 55.0116 9.71918C54.5841 9.76397 54.1544 9.78557 53.7245 9.78389H50.1653V9.58735C50.5871 9.58735 50.8843 9.51785 51.0042 9.36685C51.0547 9.31941 51.094 9.26127 51.1192 9.19668C51.1509 9.09003 51.1678 8.97955 51.1695 8.86831Z" fill="black"/>
<path d="M59.5438 8.02691C59.5294 8.40898 59.6442 8.78475 59.8698 9.09348C59.9711 9.22549 60.1019 9.33196 60.2517 9.40438C60.4015 9.47679 60.5662 9.51315 60.7326 9.51053C61.0922 9.50655 61.4447 9.40997 61.7561 9.2301C62.0644 9.05884 62.3235 8.81125 62.5087 8.51106C62.6311 8.27835 62.7122 8.02613 62.7483 7.76566C62.8042 7.39524 62.8298 7.02091 62.825 6.64635V5.94168C62.3423 5.97596 61.8621 6.03918 61.3869 6.13103C61.074 6.19168 60.7707 6.2949 60.4857 6.43782C60.1892 6.57922 59.9417 6.80609 59.7751 7.08928C59.6085 7.37246 59.5305 7.699 59.551 8.02691H59.5438ZM62.9808 9.51532C62.8768 9.27505 62.8269 9.01485 62.8346 8.75314V8.62132L62.7459 8.71958C62.6512 8.82828 62.5495 8.93076 62.4415 9.02637C62.3249 9.1215 62.2033 9.21031 62.0772 9.29242C61.827 9.48402 61.5479 9.63451 61.2503 9.73823C60.9604 9.82866 60.6575 9.87077 60.3539 9.86286C59.8714 9.89601 59.3933 9.75198 59.0093 9.4578C58.8266 9.28996 58.6833 9.08368 58.5899 8.8538C58.4877 8.60426 58.4348 8.3373 58.4341 8.06765C58.4341 7.02983 59.0764 6.36113 60.3779 6.06632C60.7379 5.9824 61.1018 5.91681 61.4684 5.86978C61.8519 5.81705 62.2881 5.77391 62.7747 5.74275L62.825 4.83915C62.8293 4.58828 62.8141 4.33746 62.7795 4.08895C62.7566 3.91413 62.7056 3.74416 62.6285 3.58562C62.4367 3.20693 62.0413 3.02717 61.4732 3.02717C60.5601 3.02717 60.0663 3.45859 60.0136 4.32144C60.014 4.42004 60.0019 4.51829 59.9776 4.61385C59.9641 4.66474 59.9326 4.70901 59.8889 4.73849C59.7541 4.81226 59.6014 4.84711 59.4479 4.83915C58.9997 4.83915 58.832 4.71212 58.8391 4.48682C58.8477 4.24151 58.9314 4.00474 59.0788 3.80853C59.2552 3.57365 59.4789 3.37849 59.7355 3.23569C60.3387 2.93391 61.0078 2.78805 61.6818 2.81145C62.5494 2.81145 63.1318 3.01039 63.4506 3.38669C63.5869 3.56048 63.6842 3.76157 63.7358 3.9763C63.8046 4.27161 63.836 4.57437 63.8293 4.8775V4.9542V5.30893L63.8005 6.2317L63.7862 7.51639L63.7718 8.14914C63.7718 8.44155 63.7862 8.66446 63.8077 8.91372C63.8293 9.16299 63.9132 9.42904 64.1073 9.50094C64.355 9.58347 64.6159 9.61923 64.8767 9.6064C65.0893 9.61226 65.3012 9.57978 65.5023 9.51053C65.5847 9.47096 65.6559 9.41144 65.7095 9.33735C65.7631 9.26326 65.7973 9.17696 65.8091 9.0863C65.8568 8.77633 65.8753 8.46257 65.8642 8.14914V4.53716C65.8642 4.04341 65.8162 3.69588 65.6748 3.51612C65.5777 3.42182 65.4601 3.35116 65.3313 3.30959C65.2024 3.26803 65.0658 3.25668 64.9318 3.27644V3.08229L66.8637 2.94328V4.48203L66.9643 4.30227C67.1885 3.86172 67.524 3.48742 67.9374 3.21651C68.3514 2.98673 68.821 2.87637 69.294 2.89774C70.1161 2.88576 70.6842 3.16139 71.0197 3.71026C71.1496 3.91248 71.2391 4.13793 71.2834 4.37417C71.3431 4.70304 71.3696 5.03708 71.3625 5.37124V8.14914C71.3503 8.4609 71.368 8.7731 71.4152 9.0815C71.4251 9.17153 71.4581 9.25747 71.511 9.33097C71.5639 9.40447 71.6349 9.46302 71.7172 9.50094C71.9513 9.56574 72.1933 9.59721 72.4362 9.59442C72.633 9.59759 72.8287 9.56511 73.0139 9.49855C73.0947 9.45833 73.1641 9.39837 73.2156 9.32422C73.2672 9.25006 73.2992 9.16411 73.3087 9.07431C73.3557 8.76831 73.3734 8.45851 73.3614 8.14914V1.5795C73.3729 1.29889 73.356 1.01784 73.3111 0.740613C73.3002 0.657505 73.267 0.578883 73.2151 0.513064C73.1632 0.447245 73.0945 0.396678 73.0163 0.366711C72.8165 0.311911 72.6097 0.287669 72.4027 0.294807V0.103063L74.4088 0C74.3848 0.445806 74.3657 0.903596 74.3513 1.36858C74.3369 1.83356 74.3321 2.28176 74.3321 2.64607V7.06579L76.5467 4.64022C76.8583 4.29268 77.0261 4.00267 77.0261 3.76778C77.0405 3.44421 76.7145 3.28842 76.1752 3.26924V3.0775H79.0514V3.27164C78.8984 3.28876 78.7475 3.32087 78.6008 3.36751C78.4517 3.42002 78.3087 3.48832 78.1742 3.57124C78.0462 3.64448 77.9222 3.72448 77.8027 3.81092C77.6741 3.91039 77.5531 4.01935 77.4408 4.13689C77.3017 4.2783 77.1004 4.48922 76.8368 4.77684L76.1177 5.56299L78.0352 8.57338C78.1923 8.85673 78.3965 9.11124 78.6392 9.32598C78.8366 9.47028 79.0676 9.56184 79.3103 9.59202V9.78856H77.5606C77.5127 9.69029 77.4456 9.56326 77.3617 9.40747L77.0836 8.89934L76.8703 8.51825L75.4538 6.21013L74.3417 7.45647V8.14914C74.3296 8.45851 74.3473 8.76832 74.3944 9.07431C74.4039 9.16442 74.4362 9.25063 74.4882 9.32484C74.5402 9.39905 74.6102 9.45882 74.6916 9.49855C74.8911 9.56769 75.1014 9.60017 75.3124 9.59442V9.78616H69.3899V9.59442C69.7902 9.59442 70.0658 9.51772 70.176 9.37151C70.2203 9.31383 70.2544 9.24898 70.2767 9.17977C70.3033 9.0877 70.3186 8.99272 70.3222 8.89695C70.3222 8.80826 70.3366 8.67644 70.3462 8.50387C70.3558 8.3313 70.3606 8.21386 70.363 8.15154V5.44315C70.3939 4.93863 70.3188 4.43324 70.1425 3.95953C70.0376 3.72294 69.8624 3.52443 69.6407 3.39104C69.4189 3.25766 69.1615 3.19587 68.9033 3.21412C68.5816 3.21191 68.2652 3.29729 67.9883 3.46111C67.7113 3.62493 67.4841 3.86102 67.331 4.14408C67.1783 4.3919 67.0628 4.66082 66.9883 4.94222C66.9076 5.22773 66.8657 5.52277 66.8637 5.81945V8.14914C66.8515 8.4609 66.8692 8.7731 66.9164 9.0815C66.9263 9.17153 66.9593 9.25747 67.0122 9.33097C67.0651 9.40447 67.1361 9.46302 67.2184 9.50094C67.4213 9.56914 67.6347 9.60079 67.8487 9.59442V9.78616H64.9534C64.6945 9.78616 64.2032 9.80773 63.9587 9.80534C63.7142 9.80294 63.5824 9.77418 63.3475 9.755C63.1414 9.69508 63.0551 9.64235 62.9856 9.51532" fill="black"/>
<path d="M2.63649 5.3401H3.25966C4.00986 5.3401 4.55873 5.16033 4.91345 4.808C5.1193 4.57883 5.26869 4.30468 5.34967 4.00747C5.45231 3.63927 5.50234 3.2584 5.49828 2.87618C5.49828 1.27831 4.79921 0.479371 3.40107 0.479371H2.63649V5.3401ZM2.63649 5.714V8.12519C2.62264 8.41368 2.64519 8.70278 2.7036 8.98564C2.72219 9.06783 2.76112 9.14403 2.81682 9.20726C2.87251 9.2705 2.94319 9.31874 3.02237 9.34756C3.26964 9.42059 3.52681 9.45456 3.78456 9.44822V9.78617H0V9.45781C0.244132 9.46112 0.487118 9.42386 0.719042 9.34756C0.79631 9.316 0.864318 9.26538 0.916711 9.20041C0.969105 9.13544 1.00417 9.05825 1.01864 8.97605C1.07097 8.69564 1.09107 8.41016 1.07856 8.12519V1.78803C1.09031 1.49988 1.07022 1.21131 1.01864 0.927574C1.00526 0.846066 0.972021 0.769105 0.921861 0.70348C0.871702 0.637855 0.806163 0.585583 0.731026 0.551275C0.511037 0.476826 0.280177 0.439565 0.0479361 0.441022V0.105469H3.64315C4.85753 0.105469 5.74754 0.319583 6.31319 0.747813C6.87884 1.17604 7.15846 1.85993 7.15207 2.79948C7.15207 4.11293 6.64075 4.97258 5.61812 5.37844C5.28679 5.49561 4.94358 5.57599 4.59468 5.61812C4.13645 5.68142 3.67429 5.71186 3.21172 5.7092L2.63649 5.714Z" fill="black"/>
<path d="M8.86799 5.7511H11.6171C11.6171 5.35323 11.586 5.03206 11.5548 4.79238C11.528 4.57051 11.4782 4.35203 11.4062 4.14045C11.1665 3.46455 10.8166 3.1266 10.3348 3.13379C9.79316 3.13379 9.39369 3.51249 9.13643 4.26988C9.06521 4.47935 9.01071 4.69413 8.97345 4.91222C8.9243 5.18991 8.8891 5.46989 8.86799 5.7511ZM13.2541 6.12021H8.85121C8.85025 6.51552 8.87749 6.9104 8.9327 7.30184C8.97769 7.60113 9.05815 7.894 9.17238 8.17427C9.5399 9.02434 10.1047 9.45017 10.8669 9.45177C11.2908 9.45301 11.7041 9.31864 12.0462 9.06828C12.4244 8.78408 12.7259 8.4101 12.9234 7.98013L13.235 8.18626C12.9882 8.72678 12.6008 9.19114 12.1133 9.53087C11.6264 9.82802 11.063 9.97554 10.493 9.9551C9.49116 9.9551 8.57558 9.62195 7.99316 8.99638C7.41073 8.37081 7.12072 7.51036 7.10873 6.41981C7.09675 5.32927 7.40594 4.45203 7.962 3.80969C8.51806 3.16735 9.40008 2.85097 10.3588 2.8294C10.9527 2.81254 11.5392 2.96375 12.0509 3.26561C12.4994 3.57332 12.8358 4.01825 13.0097 4.53353C13.0893 4.73779 13.1471 4.94988 13.1822 5.16628C13.2224 5.4844 13.2456 5.80443 13.2518 6.125" fill="black"/>
<path d="M13.5371 3.01084L15.9795 2.84306C15.9795 3.08274 16.001 3.29127 16.0082 3.45665C16.0154 3.62203 16.0082 3.76823 16.0082 3.89526V4.28354C16.5379 3.32482 17.1803 2.82389 17.9257 2.8167C18.2152 2.81024 18.4968 2.91096 18.7166 3.09952C18.8157 3.18816 18.8949 3.29678 18.949 3.41823C19.0032 3.53969 19.031 3.67122 19.0306 3.80418C19.0327 3.91302 19.01 4.02092 18.9644 4.11973C18.9187 4.21854 18.8512 4.3057 18.7669 4.37462C18.5765 4.52545 18.3386 4.60361 18.0958 4.59513C17.962 4.61463 17.8258 4.58269 17.7146 4.50574C17.6034 4.4288 17.5255 4.31257 17.4966 4.18048C17.4695 4.05066 17.4183 3.92708 17.3456 3.81617C17.3184 3.78371 17.2836 3.75843 17.2443 3.74255C17.2051 3.72667 17.1625 3.72067 17.1203 3.72509H17.094C16.8375 3.74666 16.5954 3.95039 16.3749 4.33627C16.2658 4.53664 16.1852 4.75122 16.1352 4.97382C16.08 5.23861 16.0543 5.5087 16.0585 5.77915V8.17596C16.0468 8.45994 16.0652 8.74436 16.1137 9.02443C16.128 9.10325 16.1618 9.17723 16.212 9.23961C16.2623 9.302 16.3273 9.3508 16.4013 9.38155C16.6276 9.44814 16.8629 9.47966 17.0988 9.47503V9.78661H13.4844V9.47503C13.7063 9.48838 13.9287 9.46158 14.1411 9.39593C14.2137 9.36294 14.277 9.31234 14.3251 9.24872C14.3732 9.18511 14.4047 9.11048 14.4167 9.03162C14.467 8.75177 14.4863 8.46723 14.4743 8.18315V4.58794C14.4743 4.05345 14.4335 3.70352 14.3137 3.54293C14.1938 3.38235 13.935 3.30325 13.5395 3.32722L13.5371 3.01084Z" fill="black"/>
<path d="M21.945 2.84377L21.9594 4.12845C22.1813 3.72501 22.509 3.38974 22.9073 3.15872C23.3055 2.9277 23.7593 2.80969 24.2196 2.8174C25.2167 2.8174 25.8319 3.272 26.0652 4.18118C26.2953 3.76219 26.6244 3.40589 27.0239 3.14337C27.4074 2.91748 27.8469 2.80449 28.2918 2.8174C29.0572 2.8174 29.6204 3.06827 29.9815 3.57C30.1307 3.77655 30.2337 4.01279 30.2835 4.26268C30.3501 4.61251 30.379 4.96847 30.3698 5.32446V8.18385C30.3577 8.46714 30.3769 8.75089 30.4273 9.02992C30.439 9.10922 30.4703 9.18433 30.5184 9.24839C30.5666 9.31246 30.63 9.36342 30.703 9.39664C30.9141 9.4644 31.1359 9.49284 31.3573 9.48052V9.79451H27.8436V9.48052C28.0563 9.4927 28.2695 9.46422 28.4715 9.39664C28.5427 9.36218 28.6042 9.31067 28.6506 9.24669C28.697 9.18271 28.7269 9.10825 28.7376 9.02992C28.7857 8.75063 28.8042 8.46703 28.7927 8.18385V5.33884C28.7927 4.65495 28.7128 4.16201 28.553 3.86001C28.4732 3.71356 28.3526 3.59345 28.2058 3.51431C28.059 3.43516 27.8924 3.40038 27.7261 3.41421C27.2684 3.41421 26.8849 3.65389 26.5709 4.13325C26.3059 4.51978 26.1654 4.97807 26.1682 5.4467V8.18385C26.1567 8.46703 26.1752 8.75063 26.2233 9.02992C26.2343 9.10849 26.2645 9.18311 26.3113 9.24711C26.3582 9.31112 26.4202 9.36249 26.4918 9.39664C26.6971 9.46446 26.9134 9.49293 27.1293 9.48052V9.79451H23.6348V9.48052C23.8475 9.4927 24.0607 9.46422 24.2628 9.39664C24.3339 9.36218 24.3954 9.31067 24.4418 9.24669C24.4883 9.18271 24.5181 9.10825 24.5288 9.02992C24.5769 8.75063 24.5954 8.46703 24.5839 8.18385V5.32446C24.5839 4.03817 24.2332 3.39903 23.5317 3.40702C23.3107 3.4169 23.0952 3.47895 22.9027 3.58809C22.7102 3.69723 22.5463 3.85037 22.4244 4.03498C22.114 4.47396 21.9512 5.00022 21.9594 5.53778V8.17426C21.9478 8.45983 21.9663 8.74583 22.0146 9.02753C22.0238 9.1082 22.0542 9.185 22.1026 9.25021C22.151 9.31542 22.2157 9.36675 22.2902 9.39903C22.4924 9.46581 22.7056 9.49347 22.9181 9.48052V9.79451H19.3853V9.48052C19.6073 9.49336 19.8298 9.46575 20.042 9.39903C20.1143 9.36626 20.1774 9.31603 20.2255 9.25285C20.2736 9.18968 20.3052 9.11555 20.3176 9.03711C20.3671 8.75556 20.3856 8.46943 20.3727 8.18385V4.57186C20.3871 4.04297 20.3344 3.70022 20.2145 3.54363C20.0947 3.38544 19.8287 3.30395 19.4116 3.32313V3.01154L21.945 2.84377Z" fill="black"/>
<path d="M40.6018 3.43967V7.77789C40.5991 8.01238 40.6095 8.24683 40.6329 8.48016C40.6483 8.63911 40.6812 8.79586 40.7312 8.94754C40.7805 9.08552 40.8687 9.20624 40.9852 9.29507C41.0945 9.37979 41.2281 9.42688 41.3663 9.4293C41.7052 9.39887 42.0246 9.25731 42.2747 9.02663L42.4569 9.3502C41.9641 9.77805 41.331 10.0093 40.6785 9.99974C39.9594 9.99974 39.4801 9.76005 39.2092 9.28069C39.1553 9.16846 39.1151 9.05017 39.0894 8.92836C39.0557 8.752 39.0357 8.57331 39.0295 8.39387C39.0295 8.17097 39.0127 7.86658 39.0151 7.48788V3.43967H38.2769V3.049C38.5271 3.04724 38.7735 2.98647 38.9959 2.87163C39.208 2.7477 39.3853 2.57206 39.5112 2.36111C39.6262 2.17709 39.7188 1.97994 39.7868 1.77389C39.8734 1.51183 39.9391 1.24336 39.9834 0.970964L40.6329 0.90625C40.6329 1.07642 40.6185 1.25139 40.6113 1.42875C40.6042 1.60612 40.6113 1.81943 40.5994 2.0663C40.5874 2.31318 40.5994 2.63674 40.5994 3.02503H42.1837V3.44207L40.6018 3.43967Z" fill="black"/>
<path d="M35.8467 7.04502V6.04555C34.9167 6.10787 34.2552 6.28523 33.8669 6.56086C33.4786 6.8365 33.2869 7.27991 33.2989 7.87671C33.2829 8.26768 33.383 8.65464 33.5865 8.98883C33.6679 9.11789 33.7807 9.22411 33.9145 9.29749C34.0483 9.37087 34.1985 9.409 34.3511 9.40827C34.6144 9.40557 34.8704 9.32189 35.0845 9.16859C35.3141 9.01109 35.4964 8.79398 35.6118 8.54063C35.7034 8.34995 35.7649 8.14618 35.794 7.93663C35.8333 7.6371 35.851 7.33511 35.8467 7.03303V7.04502ZM38.2699 9.50894V9.78457C37.8912 9.80854 37.7378 9.80854 37.3375 9.80854C37.0276 9.82637 36.7169 9.78987 36.4195 9.70068C36.2711 9.65675 36.137 9.57402 36.0312 9.461C35.9067 9.3119 35.8448 9.1203 35.8587 8.92651C35.5638 9.25778 35.2083 9.52952 34.8113 9.72705C34.4428 9.89412 34.0413 9.97604 33.6368 9.96673C33.101 9.992 32.5764 9.80711 32.1748 9.45141C31.9962 9.26984 31.8565 9.05378 31.7642 8.81642C31.6719 8.57906 31.6289 8.32537 31.6379 8.07085C31.6379 6.95234 32.3314 6.25967 33.7183 5.99282C34.4222 5.86414 35.1342 5.78406 35.8491 5.75314V4.89988C35.8491 4.22398 35.7844 3.7566 35.6334 3.49535C35.5513 3.36112 35.4318 3.25378 35.2896 3.18651C35.1474 3.11924 34.9887 3.09496 34.8328 3.11665C34.6607 3.09831 34.487 3.1302 34.3326 3.20846C34.1782 3.28672 34.0498 3.408 33.9628 3.55766C33.8974 3.66922 33.8504 3.79063 33.8238 3.91719C33.7881 4.10318 33.7649 4.29135 33.7543 4.48044C33.7595 4.57252 33.7441 4.66462 33.7093 4.75002C33.6745 4.83543 33.6211 4.912 33.5529 4.97418C33.377 5.08637 33.1687 5.13695 32.9609 5.11799C32.3585 5.11799 32.0557 4.91905 32.0525 4.52118C32.0559 4.28505 32.1302 4.05539 32.2659 3.86206C32.4217 3.63829 32.6236 3.45036 32.8579 3.31079C33.5104 2.95238 34.2499 2.78305 34.9934 2.82184C35.8874 2.82184 36.5298 2.99681 36.9109 3.35633C37.0919 3.52858 37.2249 3.74501 37.2968 3.9843C37.3867 4.30385 37.4279 4.63514 37.419 4.96699L37.4046 6.09588L37.3902 7.22718C37.3902 7.59868 37.3734 7.83117 37.3758 7.92944C37.3654 8.27204 37.3807 8.61494 37.4214 8.95527C37.4237 9.03763 37.444 9.11848 37.4809 9.19217C37.5177 9.26587 37.5702 9.33062 37.6347 9.38191C37.828 9.48777 38.0476 9.53602 38.2675 9.52092" fill="black"/>
<path d="M47.0326 7.046V6.04414C46.1027 6.10645 45.4412 6.28382 45.0529 6.55945C44.6646 6.83508 44.4753 7.27849 44.4848 7.8753C44.4688 8.26627 44.5689 8.65323 44.7725 8.98742C44.8543 9.1168 44.9675 9.22334 45.1016 9.29711C45.2357 9.37087 45.3864 9.40946 45.5394 9.40925C45.8025 9.40533 46.0582 9.32177 46.2729 9.16957C46.5029 9.01262 46.6854 8.79536 46.8002 8.54161C46.8918 8.35178 46.9533 8.1488 46.9823 7.94001C47.0216 7.64048 47.0392 7.33849 47.035 7.03642L47.0326 7.046ZM49.4582 9.50992V9.78555C49.0795 9.80952 48.9261 9.80952 48.5259 9.80952C48.2161 9.82678 47.9057 9.79112 47.6079 9.70406C47.4586 9.6591 47.3239 9.57561 47.2172 9.46198C47.0926 9.31289 47.0308 9.12128 47.0446 8.9275C46.7498 9.25876 46.3943 9.5305 45.9972 9.72803C45.6287 9.8951 45.2273 9.97703 44.8228 9.96771C44.2868 9.99401 43.7618 9.80899 43.3607 9.4524C43.1801 9.26985 43.0391 9.05191 42.9467 8.81226C42.8543 8.57261 42.8125 8.31644 42.8238 8.05985C42.8238 6.94134 43.5165 6.24787 44.9019 5.97942C45.606 5.85192 46.3178 5.77185 47.0326 5.73974V4.90086C47.0326 4.22496 46.9607 3.75599 46.8169 3.49393C46.7353 3.35991 46.6162 3.25266 46.4744 3.18538C46.3326 3.1181 46.1743 3.09372 46.0188 3.11524C45.8466 3.09629 45.6726 3.1279 45.5181 3.20622C45.3636 3.28454 45.2353 3.40617 45.1488 3.55625C45.0825 3.6674 45.0355 3.78895 45.0097 3.91577C44.974 4.10095 44.9508 4.28833 44.9402 4.47663C44.9455 4.56871 44.9301 4.66081 44.8953 4.74621C44.8604 4.83162 44.807 4.9082 44.7389 4.97037C44.5629 5.08256 44.3547 5.13314 44.1469 5.11418C43.5461 5.11418 43.2433 4.91524 43.2385 4.51737C43.2432 4.28145 43.3174 4.05217 43.4518 3.85825C43.608 3.63535 43.8098 3.44825 44.0438 3.30938C44.694 2.94909 45.4322 2.77806 46.1746 2.81564C47.0686 2.81564 47.7109 2.98821 48.092 3.34773C48.2729 3.52106 48.4058 3.73821 48.4779 3.97809C48.5679 4.29682 48.6091 4.62732 48.6002 4.95838L48.5858 6.08968V7.21857C48.5738 7.59008 48.5714 7.82257 48.5714 7.92084C48.5609 8.26344 48.5761 8.60634 48.6169 8.94667C48.6192 9.02937 48.6395 9.11058 48.6764 9.18467C48.7132 9.25875 48.7657 9.32393 48.8302 9.3757C49.0237 9.48099 49.2433 9.52841 49.463 9.51232" fill="black"/>
</svg>
